 <svg  version="1.0" xmlns="http://www.w3.org/2000/svg"  width="300.000000pt" height="159.000000pt" viewBox="0 0 300.000000 159.000000"  preserveAspectRatio="xMidYMid meet">  <g transform="translate(0.000000,159.000000) scale(0.100000,-0.100000)" fill="#ffffff" stroke="none"> <path d="M638 1400 c-210 -37 -382 -191 -433 -385 -17 -68 -19 -199 -4 -265 29 -125 151 -286 283 -372 156 -101 366 -109 541 -21 63 32 172 142 208 211 l28 52 -43 0 c-39 0 -45 -3 -62 -35 -32 -59 -117 -134 -195 -173 -74 -36 -77 -37 -195 -37 -115 0 -124 2 -186 31 -36 18 -81 46 -100 64 -21 19 -25 26 -10 16 88 -57 177 -80 286 -73 115 7 212 52 297 139 33 34 55 64 49 66 -7 2 -35 -21 -63 -52 -36 -39 -74 -67 -127 -93 -75 -37 -78 -38 -191 -38 -133 0 -189 17 -275 82 -95 72 -151 240 -127 376 32 184 180 339 362 378 105 23 259 -8 336 -67 32 -24 87 -91 96 -117 2 -7 7 -9 11 -6 3 3 -3 18 -15 32 -11 15 -17 27 -12 27 4 0 17 -14 28 -30 17 -25 26 -30 63 -30 23 0 42 3 42 6 0 27 -164 193 -236 240 -98 63 -246 94 -356 74z m193 -24 c66 -14 181 -66 194 -87 4 -6 -10 -2 -31 9 -202 103 -468 51 -620 -122 -141 -159 -173 -395 -79 -579 30 -58 17 -54 -18 6 -49 83 -70 164 -69 267 0 163 61 298 179 395 132 108 281 145 444 111z"/> <path d="M660 890 c-12 -12 -20 -33 -20 -53 0 -54 50 -85 116 -72 55 10 43 33 -18 37 -51 3 -53 4 -53 33 0 29 2 30 53 33 44 3 52 6 52 23 0 16 -7 19 -55 19 -42 0 -60 -5 -75 -20z"/> <path d="M840 835 c0 -67 2 -75 19 -75 17 0 20 9 23 75 3 72 2 75 -19 75 -22 0 -23 -4 -23 -75z"/> <path d="M945 835 c0 -71 1 -75 22 -75 18 0 22 5 20 22 -2 20 2 22 31 20 43 -5 82 21 82 53 0 40 -25 55 -93 55 l-62 0 0 -75z m115 20 c0 -11 -11 -15 -40 -15 -29 0 -40 4 -40 15 0 11 11 15 40 15 29 0 40 -4 40 -15z"/> <path d="M1160 835 l0 -75 70 0 c63 0 70 2 70 20 0 18 -7 20 -55 20 -30 0 -55 5 -55 10 0 6 20 10 45 10 38 0 45 3 45 20 0 17 -7 20 -46 20 -30 0 -43 4 -38 11 4 7 24 9 55 5 45 -6 49 -5 49 14 0 18 -6 20 -70 20 l-70 0 0 -75z"/> <path d="M1360 835 c0 -68 2 -75 20 -75 14 0 20 7 20 23 0 20 4 23 34 19 50 -6 76 12 76 51 0 47 -15 57 -87 57 l-63 0 0 -75z m115 20 c0 -5 -17 -11 -37 -13 -30 -3 -38 0 -38 13 0 13 8 16 38 13 20 -2 37 -7 37 -13z"/> <path d="M1570 835 c0 -68 2 -75 20 -75 18 0 20 7 20 75 0 68 -2 75 -20 75 -18 0 -20 -7 -20 -75z"/> <path d="M1690 890 c-12 -12 -20 -33 -20 -53 0 -54 50 -85 116 -72 51 9 45 35 -8 35 -54 0 -71 11 -66 41 3 21 9 24 56 27 44 3 52 6 52 23 0 16 -7 19 -55 19 -42 0 -60 -5 -75 -20z"/> </g> </svg> 